<svg width="48" height="48" viewBox="0 0 48 48" fill="none" xmlns="http://www.w3.org/2000/svg">
<g clip-path="url(#clip0_99_1354)">
<path d="M2.92634 26.4828C1.31017 26.4828 0 25.1726 0 23.5564C0.000103448 22.7803 0.308586 22.0361 0.857379 21.4874L21.4874 0.857379C22.0361 0.308586 22.7803 0.000103448 23.5564 0C25.1726 0 26.4828 1.31017 26.4828 2.92634C26.4827 3.70241 26.1742 4.44662 25.6254 4.99531L4.99531 25.6254C4.44662 26.1742 3.70241 26.4827 2.92634 26.4828Z" fill="#B3B3B3"/>
<path d="M5.79321 24.8277L24.8277 5.79321L36.0125 16.978C39.8909 20.8562 39.8911 27.1442 36.0129 31.0226C36.0129 31.0226 36.0127 31.0228 36.0125 31.023L31.023 36.0125C27.1448 39.8909 20.8568 39.8911 16.9785 36.0129C16.9785 36.0129 16.9782 36.0127 16.978 36.0125L5.79321 24.8277Z" fill="#E6E6E6"/>
<path d="M30.6206 36.4137L36.4137 30.6206L39.3814 33.5883C40.0276 34.2347 40.0276 35.2824 39.3814 35.9287L35.9287 39.3814C35.2824 40.0276 34.2347 40.0276 33.5883 39.3814L30.6206 36.4137Z" fill="#B3B3B3"/>
<path d="M36.4138 38.8966L38.8966 36.4138L48 45.5173V48H45.5173L36.4138 38.8966Z" fill="#808080"/>
<path d="M5.7931 16.5517L0.513931 11.2726C0.184759 10.9433 -0.000103405 10.4968 4.33936e-08 10.0312C4.33936e-08 9.06178 0.785897 8.27588 1.75531 8.27588C2.22093 8.27578 2.66741 8.46064 2.99669 8.78981L8.27586 14.069L5.7931 16.5517Z" fill="#E6E6E6"/>
<path d="M16.5517 5.7931L11.2726 0.513931C10.9433 0.184759 10.4968 -0.000103405 10.0312 4.33936e-08C9.06178 4.33936e-08 8.27588 0.785897 8.27588 1.75531C8.27578 2.22093 8.46064 2.66741 8.78981 2.99669L14.069 8.27586L16.5517 5.7931Z" fill="#E6E6E6"/>
<path d="M28.9656 29.7931L26.4828 16.5517L23.1725 19.8621L21.5173 15.7241L17.3794 19.8621L20.6897 28.1379L24.0001 24.8276L28.9656 29.7931Z" fill="#FDB62F"/>
</g>
<defs>
<clipPath id="clip0_99_1354">
<rect width="48" height="48" fill="white"/>
</clipPath>
</defs>
</svg>
