<svg width="48" height="48" viewBox="0 0 48 48" fill="none" xmlns="http://www.w3.org/2000/svg">
<path d="M22.6875 31.0312C22.6875 32.663 21.3357 33.985 19.6932 33.9362C18.1125 33.8892 16.875 32.5508 16.875 30.9694V25.4062C16.875 24.6296 16.2454 24 15.4688 24H4.21875C3.44212 24 2.8125 24.6296 2.8125 25.4062V30.8845C2.8125 40.213 10.4442 47.9954 19.7727 48C29.1332 48.0046 36.75 40.3907 36.75 31.0312V25.4062C36.75 24.6296 36.1204 24 35.3438 24H24.0938C23.3171 24 22.6875 24.6296 22.6875 25.4062V31.0312Z" fill="#45F6FF"/>
<path d="M35.3438 24H24.0938C23.3171 24 22.6875 24.6296 22.6875 25.4062V31.0312C22.6875 32.6336 21.3836 33.9364 19.7812 33.9366V47.9999C29.1379 47.9999 36.75 40.3879 36.75 31.0312V25.4062C36.75 24.6296 36.1204 24 35.3438 24Z" fill="#2EBEEF"/>
<path d="M2.8125 4.21875H16.875V25.4062H2.8125V4.21875Z" fill="#EBF5FF"/>
<path d="M43.7812 2.8125H37.2188C29.1934 2.8125 22.6875 9.31838 22.6875 17.3438V25.4062H36.75V17.3438C36.75 17.0849 36.9599 16.875 37.2188 16.875H43.7812V2.8125Z" fill="#BEE6FA"/>
<path d="M42.375 18.2812V1.40625C42.375 0.629625 43.0046 0 43.7812 0H46.5938C47.3704 0 48 0.629625 48 1.40625V18.2812C48 19.0579 47.3704 19.6875 46.5938 19.6875H43.7812C43.0046 19.6875 42.375 19.0579 42.375 18.2812Z" fill="#A0CBF0"/>
<path d="M18.2812 5.625H1.40625C0.629625 5.625 0 4.99538 0 4.21875V1.40625C0 0.629625 0.629625 0 1.40625 0H18.2812C19.0579 0 19.6875 0.629625 19.6875 1.40625V4.21875C19.6875 4.99538 19.0579 5.625 18.2812 5.625Z" fill="#A0CBF0"/>
</svg>
